<svg width="178" height="55" viewBox="0 0 178 55" fill="none" xmlns="http://www.w3.org/2000/svg">
<g clip-path="url(#clip0_162_526)">
<path d="M76.6217 37.3059C76.7089 37.6545 76.7961 37.916 76.7961 38.0904C76.7961 38.2647 76.7961 38.439 76.7089 38.5262C76.6217 38.6133 76.4474 38.7005 76.1859 38.7005C75.9244 38.7005 75.5757 38.7005 75.1398 38.7005C74.704 38.7005 74.2681 38.7005 74.0066 38.7005C73.7451 38.7005 73.5708 38.7005 73.3964 38.6133C73.2221 38.6133 73.1349 38.5262 73.1349 38.439C73.1349 38.3518 73.0478 38.2647 72.9606 38.1775L71.7402 34.6038H65.0282L63.895 38.0904C63.895 38.1775 63.8078 38.3518 63.7206 38.439C63.6335 38.5262 63.5463 38.6133 63.4591 38.6133C63.2848 38.7005 63.1105 38.7005 62.9361 38.7005C62.6746 38.7005 62.4131 38.7005 61.9772 38.7005C61.5414 38.7005 61.1927 38.7005 61.0184 38.7005C60.7569 38.7005 60.5825 38.6133 60.4954 38.5262C60.4082 38.439 60.4082 38.2647 60.4082 38.0904C60.4082 37.916 60.4954 37.6545 60.5825 37.3059L66.0742 21.4422C66.1614 21.2679 66.1614 21.1807 66.2486 21.0935C66.3357 21.0064 66.4229 20.9192 66.5972 20.832C66.7716 20.7449 66.9459 20.7449 67.2946 20.7449C67.5561 20.7449 67.9919 20.7449 68.4278 20.7449C68.9508 20.7449 69.3867 20.7449 69.7353 20.7449C70.084 20.7449 70.3455 20.832 70.5199 20.832C70.6942 20.9192 70.8685 20.9192 70.8685 21.0935C70.9557 21.1807 71.0429 21.355 71.0429 21.5293L76.6217 37.3059ZM68.4278 24.2314L65.8999 31.8146H70.9557L68.4278 24.2314Z" fill="#F07596"/>
<path d="M89.1743 38.1775C89.1743 38.2647 89.1743 38.3518 89.0871 38.439C88.9999 38.5262 88.9128 38.6133 88.8256 38.6133C88.6513 38.7005 88.4769 38.7005 88.3026 38.7005C88.1282 38.7005 87.7796 38.7005 87.4309 38.7005C87.0822 38.7005 86.8207 38.7005 86.5592 38.7005C86.2977 38.7005 86.1233 38.6133 86.0362 38.6133C85.8618 38.5262 85.7747 38.5262 85.7747 38.439C85.6875 38.3518 85.6875 38.2647 85.6875 38.1775V21.355C85.6875 21.2678 85.6875 21.1807 85.7747 21.0935C85.8618 21.0064 85.949 20.9192 86.0362 20.9192C86.2105 20.832 86.3849 20.832 86.5592 20.832C86.8207 20.832 87.0822 20.832 87.4309 20.832C87.7796 20.832 88.0411 20.832 88.3026 20.832C88.5641 20.832 88.7384 20.9192 88.8256 20.9192C88.9999 21.0064 89.0871 21.0064 89.0871 21.0935C89.1743 21.1807 89.1743 21.2678 89.1743 21.355V38.1775Z" fill="#F07596"/>
<path d="M114.192 37.393C114.192 37.5674 114.192 37.8289 114.105 37.916C114.018 38.0032 113.931 38.1775 113.843 38.3518C113.756 38.5262 113.582 38.5262 113.408 38.6133C113.233 38.7005 113.059 38.7005 112.885 38.7005H111.315C110.967 38.7005 110.705 38.7005 110.444 38.6133C110.182 38.5262 110.008 38.439 109.834 38.2647C109.659 38.0904 109.485 37.8289 109.223 37.5674C108.962 37.3059 108.875 36.8701 108.613 36.4342L104.168 28.0666C103.906 27.5436 103.645 27.0206 103.383 26.4976C103.122 25.8875 102.86 25.3645 102.686 24.8415C102.686 25.5388 102.773 26.149 102.773 26.8463C102.773 27.5436 102.773 28.1537 102.773 28.851V38.1775C102.773 38.2647 102.773 38.3518 102.686 38.439C102.599 38.5262 102.511 38.6133 102.424 38.6133C102.337 38.7005 102.163 38.7005 101.901 38.7005C101.727 38.7005 101.378 38.7005 101.117 38.7005C100.768 38.7005 100.506 38.7005 100.332 38.7005C100.158 38.7005 99.9835 38.6133 99.8091 38.6133C99.6348 38.6133 99.6348 38.5262 99.5476 38.439C99.4604 38.3518 99.4604 38.2647 99.4604 38.1775V22.1395C99.4604 21.7037 99.5476 21.355 99.8091 21.1807C100.071 21.0064 100.332 20.832 100.768 20.832H102.686C103.034 20.832 103.296 20.832 103.557 20.9192C103.819 21.0064 103.993 21.0935 104.168 21.1807C104.342 21.355 104.516 21.5293 104.691 21.7908C104.865 22.0523 105.039 22.3138 105.214 22.6625L108.7 29.1997C108.875 29.6355 109.136 29.9842 109.311 30.3328C109.485 30.6815 109.659 31.1173 109.921 31.4659C110.095 31.8146 110.269 32.2504 110.444 32.5991C110.618 32.9477 110.792 33.2964 110.967 33.7322C110.967 33.122 110.88 32.4247 110.88 31.7274C110.88 31.0301 110.88 30.3328 110.88 29.7227V21.355C110.88 21.2678 110.88 21.1807 110.967 21.0935C111.054 21.0064 111.141 20.9192 111.228 20.9192C111.315 20.832 111.49 20.832 111.751 20.832C111.926 20.832 112.274 20.832 112.536 20.832C112.885 20.832 113.146 20.832 113.32 20.832C113.495 20.832 113.669 20.9192 113.843 20.9192C113.931 21.0064 114.018 21.0064 114.105 21.0935C114.192 21.1807 114.192 21.2678 114.192 21.355V37.393Z" fill="#F07596"/>
<path d="M128.139 38.1775C128.139 38.2647 128.139 38.3518 128.052 38.439C127.965 38.5262 127.878 38.6133 127.79 38.6133C127.616 38.7005 127.442 38.7005 127.267 38.7005C127.093 38.7005 126.744 38.7005 126.396 38.7005C126.047 38.7005 125.786 38.7005 125.524 38.7005C125.263 38.7005 125.088 38.6133 125.001 38.6133C124.827 38.5262 124.74 38.5262 124.74 38.439C124.652 38.3518 124.652 38.2647 124.652 38.1775V21.355C124.652 21.2678 124.652 21.1807 124.74 21.0935C124.827 21.0064 124.914 20.9192 125.001 20.9192C125.175 20.832 125.35 20.832 125.524 20.832C125.786 20.832 126.047 20.832 126.396 20.832C126.744 20.832 127.006 20.832 127.267 20.832C127.529 20.832 127.703 20.9192 127.79 20.9192C127.965 21.0064 128.052 21.0064 128.052 21.0935C128.139 21.1807 128.139 21.2678 128.139 21.355V38.1775Z" fill="#F07596"/>
<path d="M156.208 36.3471C156.208 36.6086 156.208 36.8701 156.208 37.0444C156.208 37.2187 156.12 37.3931 156.12 37.4802C156.12 37.5674 156.033 37.6545 155.946 37.7417C155.859 37.8289 155.772 37.8289 155.685 37.8289H145.486C145.311 37.8289 145.137 37.8289 144.963 37.7417C144.788 37.7417 144.701 37.6545 144.614 37.5674C144.527 37.4802 144.44 37.3059 144.44 37.1316C144.44 36.9572 144.353 36.6957 144.353 36.3471C144.353 36.0856 144.353 35.8241 144.353 35.5626C144.353 35.3883 144.44 35.1268 144.527 34.9525C144.614 34.7782 144.701 34.6038 144.788 34.4295C144.876 34.2552 145.05 34.0809 145.224 33.9065L148.275 30.5943C148.885 29.9842 149.408 29.374 149.757 28.8511C150.106 28.3281 150.454 27.8051 150.629 27.4564C150.803 27.0206 150.977 26.5848 151.065 26.2362C151.152 25.8875 151.152 25.5389 151.152 25.1902C151.152 24.9287 151.065 24.5801 150.977 24.3186C150.89 24.0571 150.716 23.7956 150.542 23.6213C150.367 23.4469 150.106 23.2726 149.844 23.1854C149.583 23.0983 149.234 23.0111 148.885 23.0111C148.362 23.0111 147.839 23.0983 147.491 23.1854C147.055 23.3598 146.706 23.4469 146.357 23.6213C146.009 23.7956 145.747 23.9699 145.573 24.0571C145.399 24.1442 145.224 24.2314 145.05 24.2314C144.963 24.2314 144.876 24.2314 144.876 24.1442C144.788 24.0571 144.788 23.9699 144.701 23.8828C144.701 23.7956 144.614 23.6213 144.614 23.3598C144.614 23.1854 144.614 22.924 144.614 22.5753C144.614 22.401 144.614 22.2267 144.614 22.0523C144.614 21.878 144.614 21.7908 144.701 21.7037C144.701 21.6165 144.788 21.5293 144.788 21.4422C144.876 21.355 144.876 21.2679 145.05 21.1807C145.137 21.0935 145.399 20.9192 145.66 20.7449C146.009 20.5706 146.357 20.3962 146.793 20.2219C147.229 20.0476 147.752 19.9604 148.275 19.7861C148.798 19.6989 149.408 19.6118 149.931 19.6118C150.89 19.6118 151.675 19.6989 152.372 19.9604C153.069 20.2219 153.592 20.4834 154.116 20.9192C154.639 21.355 154.9 21.7908 155.162 22.401C155.423 23.0111 155.51 23.6213 155.51 24.2314C155.51 24.8415 155.423 25.3645 155.336 25.8875C155.249 26.4105 154.987 27.0206 154.639 27.7179C154.29 28.3281 153.767 29.1125 153.157 29.8099C152.546 30.5943 151.675 31.466 150.629 32.5119L148.537 34.6038H155.51C155.597 34.6038 155.685 34.6038 155.772 34.691C155.859 34.7782 155.946 34.8653 155.946 34.9525C156.033 35.0396 156.033 35.214 156.033 35.3883C156.12 35.9113 156.208 36.1728 156.208 36.3471Z" fill="#F07596"/>
<path d="M176.954 33.122C176.954 33.9065 176.78 34.6038 176.518 35.3011C176.257 35.9113 175.821 36.4342 175.298 36.8701C174.775 37.3059 174.077 37.6545 173.293 37.8288C172.508 38.0903 171.55 38.1775 170.503 38.1775C169.457 38.1775 168.586 38.0903 167.888 37.916C167.104 37.7417 166.494 37.393 165.971 37.0444C165.448 36.6957 165.099 36.1727 164.837 35.6498C164.576 35.1268 164.489 34.4295 164.489 33.645C164.489 33.122 164.576 32.6862 164.75 32.2504C164.925 31.8146 165.099 31.3788 165.448 31.0301C165.796 30.6815 166.145 30.3328 166.581 29.9842C167.017 29.6355 167.54 29.374 168.15 29.0254C167.714 28.7639 167.278 28.5024 166.93 28.2409C166.581 27.9794 166.232 27.6307 165.971 27.2821C165.709 26.9334 165.535 26.5848 165.36 26.149C165.186 25.7132 165.186 25.2773 165.186 24.7544C165.186 24.0571 165.273 23.3598 165.535 22.8368C165.796 22.2266 166.145 21.7908 166.668 21.355C167.191 20.9192 167.801 20.5705 168.499 20.3962C169.283 20.1347 170.155 20.0475 171.114 20.0475C172.073 20.0475 172.944 20.1347 173.642 20.3962C174.339 20.6577 174.949 20.9192 175.385 21.2678C175.821 21.6165 176.169 22.1395 176.344 22.6624C176.518 23.1854 176.692 23.7956 176.692 24.4057C176.692 24.8415 176.605 25.2773 176.518 25.626C176.431 25.9746 176.169 26.4105 175.908 26.7591C175.646 27.1078 175.298 27.4564 174.949 27.8051C174.6 28.1537 174.165 28.4152 173.642 28.6767C174.165 28.9382 174.688 29.2868 175.123 29.6355C175.559 29.9842 175.908 30.3328 176.257 30.6815C176.518 31.0301 176.78 31.4659 176.954 31.9017C177.128 32.3376 176.954 32.5991 176.954 33.122ZM173.38 33.3835C173.38 33.0349 173.293 32.7734 173.206 32.4247C173.119 32.0761 172.944 31.9017 172.683 31.6403C172.421 31.3788 172.16 31.1173 171.811 30.943C171.462 30.6815 171.026 30.5071 170.503 30.2456C170.068 30.5071 169.719 30.6815 169.37 30.943C169.022 31.2044 168.76 31.3788 168.586 31.6403C168.411 31.9017 168.237 32.1632 168.15 32.4247C168.063 32.6862 167.976 33.0349 167.976 33.2964C167.976 33.9937 168.237 34.5166 168.673 34.9525C169.109 35.3011 169.806 35.4754 170.765 35.4754C171.637 35.4754 172.334 35.3011 172.77 34.8653C173.206 34.4295 173.38 33.9937 173.38 33.3835ZM173.031 24.4929C173.031 24.1442 172.944 23.8827 172.857 23.6212C172.77 23.3597 172.596 23.1854 172.421 23.0111C172.247 22.8368 171.985 22.6624 171.724 22.5753C171.462 22.4881 171.114 22.401 170.678 22.401C169.893 22.401 169.37 22.5753 168.934 22.9239C168.586 23.2726 168.411 23.7956 168.411 24.4057C168.411 24.6672 168.499 24.9287 168.586 25.1902C168.673 25.4517 168.847 25.626 169.022 25.8875C169.196 26.149 169.457 26.3233 169.806 26.4976C170.155 26.672 170.503 26.9334 170.939 27.1949C171.637 26.8463 172.16 26.4105 172.508 25.9746C172.857 25.5388 173.031 25.103 173.031 24.4929Z" fill="#F07596"/>
<path d="M39.3135 20.0476C40.9697 15.9509 39.4006 10.5468 39.4006 10.5468C39.4006 10.5468 41.7542 6.1886 39.052 3.48654C36.3497 0.78448 32.2527 2.61491 32.2527 2.61491C32.2527 2.61491 30.9452 0.871643 22.9256 0.871643C14.906 0.871643 13.4241 2.78923 13.4241 2.78923C13.4241 2.78923 10.4604 0.2615 7.14794 3.22505C3.8355 6.1886 6.45058 10.7211 6.45058 10.7211C4.88153 15.1664 6.45058 20.0476 6.45058 20.0476C6.45058 20.0476 0.348722 28.1537 0.958909 41.664C1.56909 55.1743 14.8188 54.1284 15.7777 53.8669C16.7366 53.6054 20.9207 52.5594 21.5309 48.8114C22.2283 44.3661 16.3879 43.1458 16.3879 43.1458C16.3879 43.1458 15.3419 41.5769 14.1215 38.7005C13.4241 36.9572 13.9472 35.3883 14.4702 34.4295C14.906 33.5579 15.6034 32.8605 16.5622 32.4247C19.526 31.0301 21.3566 33.0349 22.7513 35.6498C22.9256 35.9113 23.1871 35.9113 23.3615 35.6498C24.669 33.0349 26.3252 30.8558 29.9863 32.5991C35.3037 35.0396 29.7248 43.3201 29.7248 43.3201C20.7464 45.6735 24.9305 52.6466 28.9403 53.6926C30.7709 54.2155 42.8002 55.6973 44.9795 43.6688C47.1587 31.6403 39.3135 20.0476 39.3135 20.0476ZM16.0392 10.8083C15.3419 10.7211 15.6034 9.41364 16.0392 9.15215C16.2136 9.06499 16.3879 9.06499 16.4751 9.15215C17.1724 9.5008 16.8237 10.8954 16.0392 10.8083ZM27.4584 16.6482C27.2841 16.7354 26.238 17.1712 25.0177 17.084C24.0588 16.9968 23.0999 16.4739 22.9256 16.3867C22.7513 16.561 21.5309 17.084 20.4849 17.084C19.526 17.084 18.8286 16.8225 18.48 16.6482C18.3056 16.561 18.3928 16.2124 18.6543 16.2124C18.9158 16.2995 19.0902 16.561 20.572 16.561C21.3566 16.561 22.4026 16.2124 22.5769 16.038C22.6641 15.9509 22.6641 15.9509 22.6641 15.9509C22.6641 15.8637 22.6641 15.7766 22.6641 15.7766V12.29C21.3566 12.2029 20.1362 11.9414 19.8747 11.3312C19.6132 10.8083 20.1362 9.84946 20.6592 9.23931C21.5309 8.45484 24.3203 8.45484 25.1048 9.23931C25.715 9.76229 26.4124 10.8083 26.0637 11.3312C25.6279 11.8542 24.4075 12.2029 23.1871 12.2029V15.6894C23.1871 15.6894 23.1871 15.7766 23.1871 15.8637C23.1871 15.9509 23.2743 15.9509 23.3615 16.038C23.623 16.2124 24.146 16.4739 25.0177 16.561C26.238 16.7354 27.1097 16.2124 27.2841 16.2124C27.3712 16.1252 27.6328 16.3867 27.4584 16.6482ZM29.9863 10.7211C29.289 10.8083 28.9403 9.41364 29.5505 9.06499C29.7248 8.97782 29.8992 8.97782 29.9863 9.06499C30.4222 9.32648 30.6837 10.6339 29.9863 10.7211Z" fill="#F07596"/>
</g>
<defs>
<clipPath id="clip0_162_526">
<rect width="178" height="55" fill="white"/>
</clipPath>
</defs>
</svg>
